<svg xmlns="http://www.w3.org/2000/svg" width="72" height="72" viewBox="0 0 72 72">
    <defs>
        <filter id="umj0vcqf3a">
            <feColorMatrix in="SourceGraphic" values="0 0 0 0 0.123132 0 0 0 0 0.689793 0 0 0 0 0.250309 0 0 0 1.000000 0"/>
        </filter>
    </defs>
    <g fill="none" fill-rule="evenodd">
        <g>
            <g>
                <g filter="url(#umj0vcqf3a)" transform="translate(-584 -439) translate(124 93) translate(339 311)">
                    <g>
                        <path fill="#000" fill-rule="nonzero" d="M23.168 41.573v-4.138H10.022v8.87h3.204c-.167-.407-.263-.85-.263-1.312 0-.94.387-1.798 1.005-2.416.622-.622 1.475-1.004 2.416-1.004h6.784zm14.267 7.263v13.146h8.87v-3.208c-.407.17-.85.263-1.312.263-.94 0-1.798-.383-2.416-1.005-.621-.618-1.004-1.475-1.004-2.416v-6.78h-4.138zm-2.109 13.146V48.836h-1.064c-.654 0-1.383-.1-2.105-.443-.733-.343-1.427-.92-1.977-1.857-.51-.873-1.248-1.591-2.133-2.09-.86-.49-1.865-.764-2.933-.764h-8.73c-.36 0-.686.147-.925.386-.235.24-.383.566-.383.925 0 .359.147.686.383.925.239.24.566.386.925.386h7.685c.582 0 1.052.47 1.052 1.053 0 .586-.47 1.056-1.052 1.056H6.573c-.358 0-.685.148-.925.387-.235.24-.386.566-.386.925 0 .358.151.685.386.925.24.239.586.39.925.386h11.744c.586 0 1.056.47 1.056 1.053 0 .582-.47 1.056-1.056 1.056H3.42c-.359 0-.686.148-.925.387-.239.235-.386.566-.386.925 0 .358.147.685.386.924.24.235.566.387.925.387h14.897c.586 0 1.056.47 1.056 1.052 0 .582-.47 1.057-1.056 1.057H5.035c-.36 0-.686.147-.925.382-.24.24-.387.566-.387.93 0 .358.148.685.387.924.24.235.566.383.925.383h13.282c.586 0 1.056.474 1.056 1.056 0 .582-.47 1.056-1.056 1.056h-7.745c-.36 0-.686.148-.925.383-.24.24-.387.566-.387.925 0 .359.148.69.387.925.24.239.566.387.925.387h5.836c.582 0 1.056.474 1.056 1.056 0 .582-.474 1.052-1.056 1.052h-5.836c-.941 0-1.798-.382-2.416-1-.618-.622-1.005-1.475-1.005-2.42 0-.462.096-.905.264-1.307h-2.38c-.941 0-1.798-.387-2.416-1.005-.622-.622-1.005-1.475-1.005-2.416 0-.586.148-1.132.407-1.614-.383-.171-.725-.41-1.017-.702C.387 56.25 0 55.397 0 54.456c0-.944.387-1.797 1.005-2.415.618-.622 1.47-1.005 2.411-1.005-.167-.406-.263-.849-.263-1.311 0-.941.387-1.798 1.005-2.416.622-.622 1.475-1.004 2.415-1.004H7.91V34.079c0-.459-.104-.873-.303-1.268-.211-.426-.538-.841-.949-1.256-.602-.61-1.112-1.327-1.467-2.12-.335-.754-.526-1.567-.526-2.416v-5.832c0-.586.474-1.056 1.056-1.056.582 0 1.053.47 1.053 1.056v5.832c0 .55.123 1.076.339 1.559.243.542.606 1.048 1.044 1.49.562.57 1.017 1.16 1.34 1.806.338.682.526 1.407.526 2.205v1.248h13.146v-1.065c0-.653.1-1.383.439-2.105.343-.733.92-1.427 1.861-1.977.87-.51 1.59-1.247 2.09-2.132.486-.861.76-1.866.76-2.934v-8.73c0-.359-.147-.686-.386-.925-.235-.235-.562-.383-.925-.383-.359 0-.686.148-.925.383-.235.24-.382.566-.382.925v7.685c0 .582-.475 1.053-1.057 1.053s-1.056-.47-1.056-1.053V6.573c0-.358-.148-.685-.383-.925-.239-.235-.566-.386-.925-.386-.362 0-.69.151-.924.386-.24.24-.387.567-.387.925v11.744c0 .586-.474 1.056-1.056 1.056-.583 0-1.053-.47-1.053-1.056V3.42c0-.358-.151-.685-.386-.925-.24-.239-.566-.386-.925-.386-.359 0-.69.147-.925.386-.24.24-.387.567-.387.925v14.897c0 .586-.474 1.056-1.056 1.056-.582 0-1.052-.47-1.052-1.056V5.035c0-.36-.148-.686-.387-.925-.24-.24-.566-.387-.925-.387-.358 0-.685.148-.925.387-.239.24-.386.566-.386.925v13.282c0 .586-.47 1.056-1.057 1.056-.582 0-1.052-.47-1.052-1.056v-7.745c0-.36-.148-.686-.387-.925-.239-.24-.566-.387-.925-.387-.358 0-.685.148-.924.387-.24.24-.387.566-.387.925v5.836c0 .582-.47 1.056-1.053 1.056-.581 0-1.056-.474-1.056-1.056v-5.836c0-.941.387-1.798 1.005-2.416.618-.618 1.475-1.005 2.415-1.005.463 0 .91.096 1.312.264v-2.38c0-.941.383-1.798 1.004-2.416.618-.622 1.475-1.004 2.416-1.004.582 0 1.132.147 1.61.406.172-.382.411-.725.706-1.016C15.75.387 16.607 0 17.548 0c.94 0 1.797.387 2.415 1.005.618.617 1 1.47 1.005 2.411.402-.167.845-.263 1.311-.263.941 0 1.794.387 2.416 1.005.618.622 1.005 1.475 1.005 2.415V7.91h12.222c.458 0 .876-.104 1.267-.303.427-.211.841-.538 1.26-.949.61-.602 1.323-1.112 2.12-1.467.754-.335 1.563-.526 2.412-.526h5.836c.582 0 1.053.474 1.053 1.056 0 .582-.47 1.053-1.053 1.053h-5.836c-.55 0-1.072.123-1.554.339-.547.243-1.053.606-1.495 1.044-.566.562-1.156 1.017-1.802 1.34-.682.338-1.407.526-2.208.526h-1.248v13.146h1.064c.654 0 1.383.1 2.109.439.73.343 1.423.92 1.973 1.861.51.87 1.252 1.591 2.133 2.09.86.486 1.87.76 2.934.76h8.73c.358 0 .685-.147.924-.386.24-.235.387-.562.387-.925 0-.359-.147-.685-.387-.925-.239-.235-.566-.382-.924-.382h-7.682c-.586 0-1.057-.475-1.057-1.057s.47-1.056 1.057-1.056H65.427c.358 0 .685-.147.925-.383.239-.239.386-.566.386-.924 0-.363-.147-.69-.386-.925-.24-.24-.586-.395-.925-.387H53.683c-.582 0-1.056-.474-1.056-1.056 0-.582.474-1.053 1.056-1.053H68.58c.359 0 .69-.151.925-.386.239-.24.386-.566.386-.925 0-.359-.147-.69-.386-.925-.236-.24-.566-.387-.925-.387H53.683c-.582 0-1.056-.474-1.056-1.056 0-.582.474-1.053 1.056-1.053H66.97c.36 0 .686-.147.925-.386.235-.24.383-.566.383-.925 0-.359-.148-.686-.383-.925-.239-.24-.566-.386-.925-.386H53.683c-.582 0-1.056-.47-1.056-1.057 0-.582.474-1.052 1.056-1.052h7.746c.358 0 .69-.148.924-.387.24-.24.387-.566.387-.925 0-.358-.148-.685-.387-.924-.235-.24-.566-.387-.924-.387h-5.836c-.582 0-1.053-.47-1.053-1.053 0-.582.47-1.056 1.053-1.056h5.836c.944 0 1.797.387 2.415 1.005.622.618 1.005 1.475 1.005 2.415 0 .463-.092.91-.26 1.312h2.38c.941 0 1.794.383 2.416 1.004.618.618 1.005 1.475 1.005 2.416 0 .582-.148 1.132-.407 1.61.379.172.722.411 1.016.706.618.618 1.001 1.475 1.001 2.416 0 .94-.383 1.798-1 2.416-.622.617-1.475 1-2.416 1.004.171.403.263.845.263 1.312 0 .94-.383 1.793-1.005 2.415-.617.618-1.474 1.005-2.415 1.005H64.09V37.922c0 .458.108.877.303 1.268.216.426.538.84.95 1.26.605.61 1.111 1.323 1.466 2.12.335.753.526 1.562.526 2.412v5.835c0 .582-.47 1.053-1.052 1.053-.582 0-1.056-.47-1.056-1.053v-5.835c0-.55-.124-1.073-.34-1.555-.238-.546-.605-1.052-1.044-1.495-.558-.566-1.012-1.156-1.335-1.802-.343-.681-.526-1.407-.526-2.208v-1.248H48.836v1.064c0 .654-.1 1.384-.442 2.11-.343.729-.921 1.422-1.858 1.972-.873.51-1.59 1.252-2.089 2.133-.49.86-.765 1.87-.765 2.934v8.73c0 .358.147.685.386.925.24.239.567.386.925.386.36 0 .686-.147.925-.386.24-.24.387-.567.387-.925v-7.682c0-.586.47-1.057 1.052-1.057.586 0 1.057.47 1.057 1.057V65.427c0 .358.147.685.386.925.24.239.566.386.925.386.359 0 .686-.147.925-.386.239-.24.39-.586.386-.925V53.683c0-.582.47-1.056 1.053-1.056.582 0 1.056.474 1.056 1.056V68.58c0 .359.148.69.387.925.235.239.566.386.925.386.358 0 .685-.147.924-.386.236-.236.387-.566.387-.925V53.683c0-.582.47-1.056 1.052-1.056.582 0 1.057.474 1.057 1.056V66.97c0 .359.147.686.382.925.24.235.566.383.93.383.358 0 .685-.148.924-.383.235-.24.383-.566.383-.925V53.683c0-.582.474-1.056 1.056-1.056.582 0 1.056.474 1.056 1.056v7.745c0 .36.148.69.383.925.24.24.566.387.925.387.359 0 .69-.148.925-.387.239-.235.386-.566.386-.925v-5.836c0-.582.475-1.052 1.057-1.052s1.052.47 1.052 1.052v5.836c0 .945-.383 1.798-1 2.416-.622.622-1.475 1.005-2.42 1.005-.463 0-.905-.092-1.308-.26v2.38c0 .941-.386 1.794-1.004 2.416-.622.618-1.475 1.005-2.416 1.005-.586 0-1.132-.148-1.614-.407-.172.379-.41.721-.702 1.016-.622.618-1.475 1.001-2.416 1.001-.944 0-1.797-.383-2.415-1-.622-.622-1.005-1.476-1.005-2.416-.407.171-.849.263-1.311.263-.941 0-1.798-.383-2.416-1.005-.622-.617-1.005-1.474-1.005-2.415V64.09H34.08c-.459 0-.873.108-1.268.303-.427.216-.841.538-1.256.95-.61.605-1.327 1.111-2.12 1.466-.754.335-1.567.526-2.416.526h-5.832c-.586 0-1.057-.47-1.057-1.052 0-.582.47-1.056 1.057-1.056h5.832c.55 0 1.076-.124 1.558-.34.542-.238 1.049-.605 1.491-1.044.57-.558 1.16-1.012 1.806-1.335.682-.343 1.407-.526 2.204-.526h1.248zm-.761-38.814V10.022H25.7v3.204c.402-.167.845-.263 1.307-.263.945 0 1.798.387 2.42 1.005.618.622 1 1.475 1 2.416v6.784h4.138zm14.27 11.397h13.147V25.7h-3.208c.17.402.263.845.263 1.307 0 .945-.383 1.798-1.005 2.42-.618.618-1.475 1-2.416 1h-6.78v4.138zm-7.262 12.162c.028-1.371.402-2.67 1.044-3.803.682-1.208 1.662-2.216 2.854-2.914.53-.31.841-.677 1.02-1.056.18-.383.236-.813.236-1.216v-7.31c-1.371-.029-2.67-.403-3.803-1.041-1.208-.682-2.216-1.666-2.914-2.854-.31-.53-.677-.845-1.056-1.02-.383-.184-.813-.236-1.216-.236h-7.311c-.028 1.367-.402 2.667-1.04 3.803-.682 1.204-1.666 2.216-2.854 2.914-.53.31-.845.678-1.02 1.052-.184.387-.236.813-.236 1.216V41.572c1.367.029 2.667.403 3.803 1.045 1.204.682 2.216 1.662 2.914 2.854.31.53.678.841 1.052 1.02.387.18.814.236 1.216.236H41.572z" transform="translate(121 35)"/>
                    </g>
                </g>
            </g>
        </g>
    </g>
</svg>
