<svg xmlns="http://www.w3.org/2000/svg" width="72" height="72" viewBox="0 0 72 72">
    <defs>
        <filter id="kaye1214ca">
            <feColorMatrix in="SourceGraphic" values="0 0 0 0 0.123132 0 0 0 0 0.689793 0 0 0 0 0.250309 0 0 0 1.000000 0"/>
        </filter>
    </defs>
    <g fill="none" fill-rule="evenodd">
        <g>
            <g>
                <g>
                    <g filter="url(#kaye1214ca)" transform="translate(-144 -1781) translate(0 1393) translate(23 189) translate(0 159)">
                        <g fill="#000" fill-rule="nonzero">
                            <path d="M71.407 8.806L62.907.7c-.323-.31-.657-.63-1.282-.63H27.577c-.994 0-1.804.808-1.804 1.803V7.41l-12 2.057c-.962.169-1.609 1.09-1.442 2.05l.61 3.551c-3.901 1.313-7.906 2.666-11.772 4.055-.913.334-1.393 1.35-1.067 2.268l7.69 21.378c.155.43.56.698.993.698.118 0 .239-.02.357-.063.548-.197.832-.801.635-1.35l-7.576-21.06c3.642-1.304 7.414-2.58 11.1-3.821l3.624 21.128 4.17 24.332c.15.86.906 1.47 1.758 1.47.097 0 .194-.007.293-.024l11.294-1.938 8.826-1.513L29.992 65.4l-10.467 3.764-8.13-22.611c-.197-.548-.8-.833-1.349-.636-.548.197-.833.801-.636 1.35l8.245 22.932c.264.721.947 1.17 1.669 1.17.2 0 .402-.035.6-.107l10.781-3.877 24.482-8.8 4.677-.8h10.332c.995 0 1.804-.812 1.804-1.808V9.994c0-.63-.343-.953-.593-1.188zm-2.794.25H63.205c-.253.002-.845.006-.995-.143-.034-.034-.075-.15-.075-.363l-.012-5.683 6.49 6.189zm1.278 46.619H27.883V35.12c0-.583-.472-1.055-1.055-1.055-.582 0-1.055.472-1.055 1.055v20.856c0 .997.81 1.808 1.804 1.808H47.38l-13.296 2.279-10.966 1.882-4.113-24-4.538-26.456 11.307-1.938v20.675c0 .583.473 1.055 1.055 1.055s1.055-.472 1.055-1.055V2.18h32.129l.014 6.374c0 .772.235 1.397.698 1.857.712.707 1.719.756 2.343.756H69.89v44.509z" transform="translate(121 40)"/>
                            <path d="M32.967 16.446c0 .582.472 1.055 1.054 1.055h30.155c.583 0 1.055-.473 1.055-1.055 0-.583-.472-1.055-1.055-1.055H34.021c-.582 0-1.054.472-1.054 1.055zM64.176 22.884H34.021c-.582 0-1.054.472-1.054 1.055 0 .582.472 1.054 1.054 1.054h30.155c.583 0 1.055-.472 1.055-1.054 0-.583-.472-1.055-1.055-1.055zM64.176 30.377H34.021c-.582 0-1.054.472-1.054 1.055 0 .582.472 1.054 1.054 1.054h30.155c.583 0 1.055-.472 1.055-1.054 0-.583-.472-1.055-1.055-1.055zM64.176 37.87H34.021c-.582 0-1.054.472-1.054 1.054 0 .583.472 1.055 1.054 1.055h30.155c.583 0 1.055-.472 1.055-1.055 0-.582-.472-1.054-1.055-1.054zM64.176 45.363H34.021c-.582 0-1.054.472-1.054 1.054 0 .583.472 1.055 1.054 1.055h30.155c.583 0 1.055-.472 1.055-1.055 0-.582-.472-1.054-1.055-1.054z" transform="translate(121 40)"/>
                        </g>
                    </g>
                </g>
            </g>
        </g>
    </g>
</svg>
