<svg xmlns="http://www.w3.org/2000/svg" width="72" height="72" viewBox="0 0 72 72">
    <defs>
        <filter id="d9ihj710ca">
            <feColorMatrix in="SourceGraphic" values="0 0 0 0 0.138917 0 0 0 0 0.498376 0 0 0 0 0.837976 0 0 0 1.000000 0"/>
        </filter>
    </defs>
    <g fill="none" fill-rule="evenodd">
        <g>
            <g>
                <g>
                    <g>
                        <g filter="url(#d9ihj710ca)" transform="translate(-483 -1780) translate(0 1393) translate(23 189) translate(0 159) translate(339)">
                            <g fill="#000" fill-rule="nonzero">
                                <path d="M11.566 18.338v2.481h2.314v-2.48c1.335-.424 2.313-1.66 2.313-3.134 0-1.258-.699-2.39-1.825-2.953l-2.255-1.128c-.337-.167-.547-.506-.547-.883 0-.545.444-.988.988-.988h.337c.544 0 .989.443.989.988v.169h2.313v-.17c0-1.473-.978-2.71-2.313-3.133v-2.48h-2.314v2.48c-1.336.424-2.313 1.66-2.313 3.134 0 1.258.699 2.39 1.825 2.953l2.254 1.127c.338.168.548.507.548.884 0 .545-.445.988-.988.988h-.337c-.545 0-.989-.443-.989-.988V13.88H9.253v1.325c0 1.474.977 2.71 2.313 3.133zM13.88 53.373v-2.481h-2.314v2.48c-1.336.424-2.313 1.66-2.313 3.134 0 1.258.699 2.388 1.825 2.953l2.254 1.127c.338.168.548.507.548.884 0 .544-.445.988-.988.988h-.337c-.545 0-.989-.444-.989-.988v-1.325H9.253v1.325c0 1.475.977 2.711 2.313 3.133v2.481h2.314v-2.48c1.335-.424 2.313-1.66 2.313-3.134 0-1.258-.699-2.388-1.825-2.953l-2.255-1.128c-.337-.167-.547-.506-.547-.883 0-.544.444-.988.988-.988h.337c.544 0 .989.444.989.988v.169h2.313v-.17c0-1.473-.978-2.71-2.313-3.132z" transform="translate(121 39)"/>
                                <path d="M12.723 25.446c5.45 0 10.096-3.452 11.905-8.277l8.92 2.432c0 .021-.006.04-.006.062 0 2.551 2.075 4.626 4.627 4.626 2.411 0 4.374-1.86 4.585-4.218l5.074-.846c.721 1.617 2.337 2.75 4.22 2.75 1.09 0 2.08-.394 2.872-1.027L67.7 30.53l-4.274.713.38 2.282 8.08-1.347-1.347-8.08-2.282.38.682 4.093-12.616-9.462c.225-.544.353-1.137.353-1.76 0-2.552-2.075-4.627-4.627-4.627-2.411 0-4.374 1.86-4.585 4.218l-5.074.846c-.722-1.617-2.337-2.75-4.22-2.75-1.716 0-3.197.948-3.996 2.337l-8.933-2.436c.127-.72.206-1.459.206-2.215C25.446 5.708 19.738 0 12.723 0 5.708 0 0 5.708 0 12.723c0 7.015 5.708 12.723 12.723 12.723zm39.325-10.41c1.276 0 2.313 1.038 2.313 2.313 0 1.276-1.037 2.314-2.313 2.314-1.276 0-2.313-1.038-2.313-2.314 0-1.275 1.037-2.313 2.313-2.313zm-13.88 2.313c1.276 0 2.314 1.038 2.314 2.314 0 1.275-1.038 2.313-2.313 2.313-1.276 0-2.314-1.038-2.314-2.313 0-1.276 1.038-2.314 2.314-2.314zM12.724 2.313c5.74 0 10.41 4.67 10.41 10.41s-4.67 10.41-10.41 10.41-10.41-4.67-10.41-10.41 4.67-10.41 10.41-10.41z" transform="translate(121 39)"/>
                                <path d="M18.506 37.012h-2.782c-.694-1.366-2.098-2.313-3.732-2.313H8.827c-2.316 0-4.2 1.884-4.2 4.2 0 .39.054.78.161 1.154l2.038 7.135-4.513 6.017C.821 55.195 0 57.66 0 60.145 0 66.522 5.189 71.71 11.566 71.71h2.314c1.644 0 3.208-.35 4.626-.973v.973h11.566V27.759H18.506v9.253zm-9.679 0h3.165c1.04 0 1.888.847 1.888 1.888v2.739h2.313v-2.314h2.512c1.166 0 2.114.949 2.114 2.115 0 .556-.225 1.102-.619 1.495l-3.33 3.33h-7.9l-1.957-6.848c-.049-.168-.073-.343-.073-.517 0-1.041.846-1.888 1.887-1.888zm2.74 32.386c-5.103 0-9.254-4.152-9.254-9.253 0-1.989.657-3.96 1.85-5.553l4.512-6.014h8.096l4.51 6.014c1.195 1.592 1.852 3.564 1.852 5.553 0 5.101-4.152 9.253-9.253 9.253h-2.314zm16.192-39.326v39.326h-6.94v-.022c2.803-2.114 4.627-5.459 4.627-9.231 0-2.485-.821-4.95-2.313-6.94l-4.257-5.675 2.96-2.96c.836-.834 1.297-1.947 1.297-3.13 0-1.672-.943-3.113-2.314-3.866v-7.502h6.94zM32.386 71.71h11.566V34.7H32.386V71.71zm2.313-34.698h6.94v32.386h-6.94V37.012zM46.265 71.71h11.566V28.917H46.265V71.71zm2.313-40.481h6.94v38.169h-6.94v-38.17zM60.145 71.71H71.71V39.326H60.145v32.386zm2.313-30.071h6.94v27.759h-6.94v-27.76z" transform="translate(121 39)"/>
                            </g>
                        </g>
                    </g>
                </g>
            </g>
        </g>
    </g>
</svg>
