<svg xmlns="http://www.w3.org/2000/svg" width="72" height="72" viewBox="0 0 72 72">
    <defs>
        <filter id="dk25dza9ra">
            <feColorMatrix in="SourceGraphic" values="0 0 0 0 0.138917 0 0 0 0 0.498376 0 0 0 0 0.837976 0 0 0 1.000000 0"/>
        </filter>
    </defs>
    <g fill="none" fill-rule="evenodd">
        <g>
            <g>
                <g filter="url(#dk25dza9ra)" transform="translate(-923 -439) translate(124 93) translate(678 311)">
                    <g fill="#000" fill-rule="nonzero">
                        <path d="M66.094 25.313H46.316c.062-.694.096-1.397.096-2.107C46.412 10.41 36.002 0 23.206 0 19.13 0 15.12 1.072 11.61 3.1c-.672.389-.903 1.249-.514 1.921.389.673 1.249.903 1.921.515 3.082-1.782 6.605-2.723 10.188-2.723C34.45 2.813 43.6 11.96 43.6 23.206c0 11.245-9.15 20.394-20.394 20.394-4.707 0-9.13-1.56-12.788-4.51-.367-.295-.853-.383-1.296-.248l-3.733.977 1.463-3.214c.21-.461.155-1-.143-1.41-2.549-3.5-3.896-7.647-3.896-11.989 0-3.592.946-7.124 2.737-10.212.39-.673.16-1.533-.512-1.922-.671-.39-1.532-.161-1.922.511C1.078 15.1 0 19.119 0 23.206c0 4.663 1.366 9.129 3.959 12.966l-2.354 5.173c-.226.493-.146 1.072.203 1.488.35.415.907.592 1.432.455l5.98-1.564c4.01 3.029 8.947 4.689 13.986 4.689 1.097 0 2.175-.079 3.232-.227V58.5c0 3.257 2.649 5.907 5.905 5.907h19.89l8.892 7.275c.256.21.572.318.89.318.206 0 .411-.044.603-.135.49-.233.804-.727.804-1.271v-6.187h2.672c3.257 0 5.906-2.65 5.906-5.907V31.22c0-3.257-2.65-5.906-5.906-5.906zM69.188 58.5c0 1.706-1.388 3.094-3.094 3.094h-4.078c-.777 0-1.407.63-1.407 1.406v4.626l-6.945-5.682c-.383-.35-.718-.35-1.471-.35h-19.85c-1.705 0-3.093-1.388-3.093-3.094V45.612c8.318-2.246 14.8-9.01 16.635-17.487h20.209c1.706 0 3.094 1.388 3.094 3.094V58.5z" transform="translate(121 35)"/>
                        <path d="M56.152 49.083c.487-.228.825-.72.825-1.292 0-.79-.643-1.43-1.437-1.43h-.589l-4.635-10.506C50.086 35.335 49.57 35 49 35c-.57 0-1.087.336-1.316.855l-4.636 10.506h-.588c-.794 0-1.437.64-1.437 1.43 0 .572.338 1.064.825 1.292l-1.727 3.913c-.318.723.012 1.566.739 1.883.727.317 1.575-.012 1.894-.735l2.172-4.924h8.147l2.173 4.924c.237.536.764.856 1.317.856.193 0 .389-.039.577-.12.727-.318 1.058-1.161.738-1.884l-1.726-3.913zm-9.965-2.722L49 39.987l2.812 6.374h-5.625zM7.5 9c.394 0 .781-.16 1.06-.44.28-.278.44-.665.44-1.06 0-.394-.16-.781-.44-1.06C8.282 6.16 7.895 6 7.5 6c-.396 0-.782.16-1.06.44-.28.279-.44.666-.44 1.06 0 .395.16.782.44 1.06.278.28.665.44 1.06.44zM14.72 31.407c-.671.367-.917 1.206-.549 1.875.253.458.728.718 1.218.718.225 0 .454-.055.666-.17 3.093-1.69 5.472-4.318 6.864-7.417 1.393 3.099 3.772 5.727 6.865 7.416.212.116.44.171.666.171.49 0 .965-.26 1.217-.718.369-.669.123-1.508-.55-1.875-3.62-1.978-6.057-5.513-6.662-9.506h6.158c.766 0 1.387-.619 1.387-1.382 0-.763-.62-1.381-1.387-1.381h-6.307v-5.757c0-.763-.62-1.381-1.387-1.381-.766 0-1.387.618-1.387 1.381v5.757h-5.01c-.767 0-1.387.618-1.387 1.381s.62 1.382 1.387 1.382h4.862c-.605 3.993-3.043 7.528-6.663 9.506z" transform="translate(121 35)"/>
                    </g>
                </g>
            </g>
        </g>
    </g>
</svg>
