<svg xmlns="http://www.w3.org/2000/svg" width="76" height="72" viewBox="0 0 76 72">
    <defs>
        <filter id="ntrxyk2dra">
            <feColorMatrix in="SourceGraphic" values="0 0 0 0 0.950436 0 0 0 0 0.000000 0 0 0 0 0.000000 0 0 0 1.000000 0"/>
        </filter>
    </defs>
    <g fill="none" fill-rule="evenodd">
        <g>
            <g>
                <g>
                    <g>
                        <g filter="url(#ntrxyk2dra)" transform="translate(-820 -1779) translate(0 1393) translate(23 189) translate(0 159) translate(678)">
                            <g fill="#000" fill-rule="nonzero">
                                <path d="M23.45 72c-.191 0-.384-.037-.568-.115-.554-.233-.916-.781-.916-1.39v-9.828c-6.036-1.79-11.469-5.498-15.395-10.531C2.272 44.626 0 37.992 0 30.952 0 13.885 13.696 0 30.53 0h14.94C62.303 0 76 13.885 76 30.952c0 5.271-1.33 10.477-3.848 15.054-.4.726-1.304.986-2.02.581s-.972-1.321-.573-2.047c2.272-4.13 3.472-8.829 3.472-13.588 0-15.408-12.364-27.942-27.562-27.942H30.531c-15.198 0-27.562 12.534-27.562 27.942 0 12.842 8.57 23.988 20.842 27.104.66.168 1.124.77 1.124 1.46v7.346l7.425-7.527c.278-.282.656-.441 1.05-.441h12.06c5.61 0 11.01-1.699 15.612-4.912.675-.471 1.6-.298 2.065.386.464.685.294 1.621-.381 2.093-5.1 3.56-11.081 5.443-17.297 5.443H34.024L24.5 71.559c-.284.288-.664.441-1.05.441z" transform="translate(119 38)"/>
                                <path d="M66.5 52c-.394 0-.781-.16-1.06-.44-.28-.279-.44-.666-.44-1.06 0-.395.16-.782.44-1.06.279-.28.666-.44 1.06-.44s.781.16 1.06.44c.28.279.44.666.44 1.06 0 .395-.16.782-.44 1.06-.279.28-.666.44-1.06.44zM38.57 29.024h-.375v-5.556c0-.81-.64-1.468-1.43-1.468-.79 0-1.43.657-1.43 1.468v5.556H30.86v-5.556c0-.81-.64-1.468-1.43-1.468-.79 0-1.43.657-1.43 1.468v7.024c0 .811.64 1.468 1.43 1.468h5.905v5.572c0 .81.64 1.468 1.43 1.468.79 0 1.43-.657 1.43-1.468V31.96h.375c.79 0 1.43-.657 1.43-1.468 0-.81-.64-1.468-1.43-1.468zM21.527 39h-7.054c-.596 0-1.133-.358-1.36-.906-.229-.549-.103-1.18.318-1.6l4.56-4.546c1.33-1.326 2.063-3.089 2.063-4.964 0-1.129-.921-2.048-2.054-2.048-1.133 0-2.054.919-2.054 2.048 0 .81-.66 1.468-1.473 1.468-.814 0-1.473-.657-1.473-1.468C13 24.236 15.243 22 18 22s5 2.236 5 4.984c0 2.66-1.039 5.16-2.925 7.04l-2.047 2.04h3.5c.813 0 1.472.657 1.472 1.468 0 .811-.66 1.468-1.473 1.468zM54.472 39c-.221 0-.446-.05-.658-.155-.727-.363-1.022-1.245-.658-1.97l5.988-11.939h-4.67c-.814 0-1.474-.657-1.474-1.468 0-.81.66-1.468 1.473-1.468h7.054c.51 0 .985.263 1.253.696.268.433.293.973.065 1.429L55.79 38.188c-.258.515-.778.812-1.318.812zM43.475 42c-.127 0-.255-.016-.383-.051-.786-.212-1.252-1.028-1.041-1.82l5.052-19.027c.21-.793 1.019-1.263 1.805-1.051.786.212 1.252 1.028 1.041 1.82l-5.052 19.027c-.177.664-.772 1.102-1.422 1.102z" transform="translate(119 38)"/>
                            </g>
                        </g>
                    </g>
                </g>
            </g>
        </g>
    </g>
</svg>
