<svg xmlns="http://www.w3.org/2000/svg" width="72" height="69" viewBox="0 0 72 69">
    <defs>
        <filter id="dhs1cx7kxa">
            <feColorMatrix in="SourceGraphic" values="0 0 0 0 0.541852 0 0 0 0 0.347156 0 0 0 0 0.818048 0 0 0 1.000000 0"/>
        </filter>
    </defs>
    <g fill="none" fill-rule="evenodd">
        <g>
            <g>
                <g>
                    <g>
                        <g>
                            <g filter="url(#dhs1cx7kxa)" transform="translate(-1161 -1780) translate(0 1393) translate(23 189) translate(0 159) translate(1017) translate(19 39)">
                                <g fill="#000" fill-rule="nonzero">
                                    <path d="M70.088 12.471c1.036 0 1.878-.842 1.878-1.878V6.35c0-1.036-.842-1.879-1.878-1.879h-4.245c-1.035 0-1.878.843-1.878 1.879v1.067H60.48c-.583 0-1.055.472-1.055 1.055 0 .582.472 1.055 1.055 1.055h3.485v1.067c0 1.036.843 1.878 1.878 1.878h1.068v38.694h-1.068c-1.035 0-1.878.842-1.878 1.878v1.697h-8.284L46.184 9.526h9.801c.583 0 1.055-.473 1.055-1.055 0-.583-.472-1.055-1.055-1.055H45.741l-1.07-5.09c-.285-1.315-1.469-2.27-2.815-2.27H29.969c-1.346 0-2.53.955-2.817 2.278l-1.067 5.082H8V6.35c0-1.036-.842-1.879-1.878-1.879H1.878C.842 4.47 0 5.313 0 6.35v4.244c0 1.036.842 1.878 1.878 1.878h1.068v38.693H1.878C.842 51.164 0 52.007 0 53.043v4.245c0 1.035.842 1.878 1.878 1.878h4.245c1.036 0 1.878-.843 1.878-1.878v-.438h7.7l-.576 2.744h-2.522c-1.072 0-1.944.873-1.944 1.945v4.489c0 1.072.872 1.945 1.944 1.945h19.131c1.072 0 1.945-.873 1.945-1.945v-4.49c0-1.071-.873-1.944-1.945-1.944h-2.322l.45-2.744h12.102l.45 2.744h-2.322c-1.073 0-1.945.873-1.945 1.945v4.489c0 1.072.872 1.945 1.945 1.945h19.13c1.073 0 1.945-.873 1.945-1.945v-4.49c0-1.071-.872-1.944-1.945-1.944h-2.521l-.577-2.744h7.841v.438c0 1.035.843 1.878 1.878 1.878h4.245c1.036 0 1.878-.843 1.878-1.878v-4.245c0-1.036-.842-1.878-1.878-1.878H69.02V12.47h1.068zM29.215 2.774c.076-.353.394-.609.754-.609h11.887c.36 0 .678.256.753.602l.976 4.65H28.24l.975-4.643zM2.109 6.58h3.783v3.782H2.109V6.58zm3.783 50.476H2.109v-3.782h3.783v3.782zm25.677 4.647v4.16H12.768v-4.16h3.213c.499 0 .93-.35 1.032-.838l3.013-14.343c.12-.57-.245-1.129-.815-1.249-.57-.12-1.13.246-1.25.816l-1.817 8.651H8.001v-1.697c0-1.036-.842-1.878-1.878-1.878H5.055V12.47h1.068c1.036 0 1.878-.842 1.878-1.878V9.526h17.64l-6.755 32.162c-.12.57.245 1.13.815 1.25.57.12 1.13-.246 1.249-.816l6.847-32.596h16.231l9.498 45.214h-9.77l-.697-4.247c-.083-.51-.524-.884-1.04-.884H29.807c-.517 0-.957.374-1.04.884l-1.638 9.985c-.05.305.037.618.237.853.2.236.495.372.804.372h3.4zm-1.361-6.963l.495-3.022h10.42l.495 3.022h-11.41zm24.604 6.125c.103.489.534.838 1.032.838h3.213v4.16h-18.8v-4.16h3.398c.31 0 .604-.136.804-.372.2-.236.287-.548.237-.853l-.595-3.629h9.868l.843 4.016zm15.045-3.809h-3.783v-3.782h3.783v3.782zM66.074 6.58h3.783v3.782h-3.783V6.58z" transform="translate(102)"/>
                                    <path d="M31.744 42.064h8.337c.316 0 .616-.142.816-.387.2-.244.28-.566.218-.876l-.807-4.025c-.115-.572-.67-.942-1.242-.827-.571.115-.941.67-.827 1.242l.555 2.763H33.03l2.882-14.36 1.44 7.182c.115.572.67.941 1.242.827.571-.115.941-.67.827-1.242l-1.995-9.942c-.147-.73-.77-1.24-1.514-1.24-.745 0-1.368.51-1.515 1.24L30.71 40.801c-.062.31.018.632.218.876.2.245.5.387.816.387z" transform="translate(102)"/>
                                </g>
                            </g>
                        </g>
                    </g>
                </g>
            </g>
        </g>
    </g>
</svg>
